<mxfile host="app.diagrams.net" agent="Mozilla/5.0 (Windows NT 10.0; Win64; x64) AppleWebKit/537.36 (KHTML, like Gecko) Chrome/131.0.0.0 Safari/537.36" version="25.0.3">
  <diagram id="R2lEEEUBdFMjLlhIrx00" name="Page-1">
    <mxGraphModel dx="1615" dy="869" grid="1" gridSize="10" guides="1" tooltips="1" connect="1" arrows="1" fold="1" page="1" pageScale="1" pageWidth="850" pageHeight="1100" math="0" shadow="0" extFonts="Permanent Marker^https://fonts.googleapis.com/css?family=Permanent+Marker">
      <root>
        <mxCell id="0" />
        <mxCell id="1" parent="0" />
        <mxCell id="3MZtsbulTiadslG45F7I-24" style="rounded=0;orthogonalLoop=1;jettySize=auto;html=1;entryX=1;entryY=0.5;entryDx=0;entryDy=0;exitX=0;exitY=1;exitDx=0;exitDy=0;" edge="1" parent="1" source="3MZtsbulTiadslG45F7I-14" target="3MZtsbulTiadslG45F7I-18">
          <mxGeometry relative="1" as="geometry">
            <mxPoint x="280" y="220" as="sourcePoint" />
          </mxGeometry>
        </mxCell>
        <mxCell id="3MZtsbulTiadslG45F7I-25" style="rounded=0;orthogonalLoop=1;jettySize=auto;html=1;exitX=0;exitY=0.5;exitDx=0;exitDy=0;entryX=1;entryY=1;entryDx=0;entryDy=0;" edge="1" parent="1" source="3MZtsbulTiadslG45F7I-14" target="3MZtsbulTiadslG45F7I-20">
          <mxGeometry relative="1" as="geometry" />
        </mxCell>
        <mxCell id="3MZtsbulTiadslG45F7I-26" style="rounded=0;orthogonalLoop=1;jettySize=auto;html=1;entryX=0.5;entryY=1;entryDx=0;entryDy=0;exitX=0;exitY=0;exitDx=0;exitDy=0;" edge="1" parent="1" source="3MZtsbulTiadslG45F7I-14" target="3MZtsbulTiadslG45F7I-21">
          <mxGeometry relative="1" as="geometry" />
        </mxCell>
        <mxCell id="3MZtsbulTiadslG45F7I-27" style="rounded=0;orthogonalLoop=1;jettySize=auto;html=1;entryX=0.5;entryY=1;entryDx=0;entryDy=0;exitX=0.5;exitY=0;exitDx=0;exitDy=0;" edge="1" parent="1" source="3MZtsbulTiadslG45F7I-14" target="3MZtsbulTiadslG45F7I-22">
          <mxGeometry relative="1" as="geometry">
            <mxPoint x="360" y="200" as="sourcePoint" />
          </mxGeometry>
        </mxCell>
        <mxCell id="3MZtsbulTiadslG45F7I-28" style="rounded=0;orthogonalLoop=1;jettySize=auto;html=1;exitX=1;exitY=0;exitDx=0;exitDy=0;" edge="1" parent="1" source="3MZtsbulTiadslG45F7I-14" target="3MZtsbulTiadslG45F7I-23">
          <mxGeometry relative="1" as="geometry" />
        </mxCell>
        <mxCell id="3MZtsbulTiadslG45F7I-30" style="rounded=0;orthogonalLoop=1;jettySize=auto;html=1;exitX=1;exitY=0.5;exitDx=0;exitDy=0;entryX=0;entryY=0.5;entryDx=0;entryDy=0;" edge="1" parent="1" source="3MZtsbulTiadslG45F7I-14" target="3MZtsbulTiadslG45F7I-29">
          <mxGeometry relative="1" as="geometry" />
        </mxCell>
        <mxCell id="3MZtsbulTiadslG45F7I-35" style="rounded=0;orthogonalLoop=1;jettySize=auto;html=1;exitX=1;exitY=0.25;exitDx=0;exitDy=0;entryX=0;entryY=0.5;entryDx=0;entryDy=0;" edge="1" parent="1" source="3MZtsbulTiadslG45F7I-14" target="3MZtsbulTiadslG45F7I-34">
          <mxGeometry relative="1" as="geometry" />
        </mxCell>
        <mxCell id="3MZtsbulTiadslG45F7I-36" style="edgeStyle=orthogonalEdgeStyle;rounded=0;orthogonalLoop=1;jettySize=auto;html=1;" edge="1" parent="1" source="3MZtsbulTiadslG45F7I-14" target="3MZtsbulTiadslG45F7I-33">
          <mxGeometry relative="1" as="geometry" />
        </mxCell>
        <mxCell id="3MZtsbulTiadslG45F7I-67" style="rounded=0;orthogonalLoop=1;jettySize=auto;html=1;exitX=0.75;exitY=1;exitDx=0;exitDy=0;entryX=0;entryY=0.5;entryDx=0;entryDy=0;" edge="1" parent="1" source="3MZtsbulTiadslG45F7I-14" target="3MZtsbulTiadslG45F7I-66">
          <mxGeometry relative="1" as="geometry" />
        </mxCell>
        <mxCell id="3MZtsbulTiadslG45F7I-14" value="User" style="whiteSpace=wrap;html=1;align=center;" vertex="1" parent="1">
          <mxGeometry x="280" y="200" width="80" height="40" as="geometry" />
        </mxCell>
        <mxCell id="3MZtsbulTiadslG45F7I-18" value="user_id" style="ellipse;whiteSpace=wrap;html=1;align=center;fontStyle=4;" vertex="1" parent="1">
          <mxGeometry x="90" y="240" width="100" height="40" as="geometry" />
        </mxCell>
        <mxCell id="3MZtsbulTiadslG45F7I-20" value="Name" style="ellipse;whiteSpace=wrap;html=1;align=center;" vertex="1" parent="1">
          <mxGeometry x="90" y="170" width="100" height="40" as="geometry" />
        </mxCell>
        <mxCell id="3MZtsbulTiadslG45F7I-21" value="gender" style="ellipse;whiteSpace=wrap;html=1;align=center;" vertex="1" parent="1">
          <mxGeometry x="130" y="70" width="100" height="40" as="geometry" />
        </mxCell>
        <mxCell id="3MZtsbulTiadslG45F7I-22" value="phone number" style="ellipse;whiteSpace=wrap;html=1;align=center;" vertex="1" parent="1">
          <mxGeometry x="270" y="60" width="100" height="40" as="geometry" />
        </mxCell>
        <mxCell id="3MZtsbulTiadslG45F7I-23" value="Weight" style="ellipse;whiteSpace=wrap;html=1;align=center;" vertex="1" parent="1">
          <mxGeometry x="390" y="70" width="100" height="40" as="geometry" />
        </mxCell>
        <mxCell id="3MZtsbulTiadslG45F7I-29" value="Password" style="ellipse;whiteSpace=wrap;html=1;align=center;" vertex="1" parent="1">
          <mxGeometry x="490" y="200" width="100" height="40" as="geometry" />
        </mxCell>
        <mxCell id="3MZtsbulTiadslG45F7I-38" style="edgeStyle=orthogonalEdgeStyle;rounded=0;orthogonalLoop=1;jettySize=auto;html=1;exitX=0.5;exitY=1;exitDx=0;exitDy=0;" edge="1" parent="1" source="3MZtsbulTiadslG45F7I-33" target="3MZtsbulTiadslG45F7I-37">
          <mxGeometry relative="1" as="geometry" />
        </mxCell>
        <mxCell id="3MZtsbulTiadslG45F7I-33" value="Buy" style="shape=rhombus;perimeter=rhombusPerimeter;whiteSpace=wrap;html=1;align=center;" vertex="1" parent="1">
          <mxGeometry x="240" y="380" width="160" height="100" as="geometry" />
        </mxCell>
        <mxCell id="3MZtsbulTiadslG45F7I-34" value="Weight" style="ellipse;whiteSpace=wrap;html=1;align=center;" vertex="1" parent="1">
          <mxGeometry x="490" y="130" width="100" height="40" as="geometry" />
        </mxCell>
        <mxCell id="3MZtsbulTiadslG45F7I-45" style="rounded=0;orthogonalLoop=1;jettySize=auto;html=1;exitX=0;exitY=0;exitDx=0;exitDy=0;entryX=1;entryY=0.5;entryDx=0;entryDy=0;" edge="1" parent="1" source="3MZtsbulTiadslG45F7I-37" target="3MZtsbulTiadslG45F7I-44">
          <mxGeometry relative="1" as="geometry" />
        </mxCell>
        <mxCell id="3MZtsbulTiadslG45F7I-46" style="rounded=0;orthogonalLoop=1;jettySize=auto;html=1;exitX=0;exitY=0.5;exitDx=0;exitDy=0;entryX=1;entryY=0.5;entryDx=0;entryDy=0;" edge="1" parent="1" source="3MZtsbulTiadslG45F7I-37" target="3MZtsbulTiadslG45F7I-40">
          <mxGeometry relative="1" as="geometry" />
        </mxCell>
        <mxCell id="3MZtsbulTiadslG45F7I-47" style="rounded=0;orthogonalLoop=1;jettySize=auto;html=1;exitX=0;exitY=1;exitDx=0;exitDy=0;entryX=1;entryY=0.5;entryDx=0;entryDy=0;" edge="1" parent="1" source="3MZtsbulTiadslG45F7I-37" target="3MZtsbulTiadslG45F7I-39">
          <mxGeometry relative="1" as="geometry" />
        </mxCell>
        <mxCell id="3MZtsbulTiadslG45F7I-48" style="edgeStyle=orthogonalEdgeStyle;rounded=0;orthogonalLoop=1;jettySize=auto;html=1;" edge="1" parent="1" source="3MZtsbulTiadslG45F7I-37" target="3MZtsbulTiadslG45F7I-41">
          <mxGeometry relative="1" as="geometry" />
        </mxCell>
        <mxCell id="3MZtsbulTiadslG45F7I-49" style="rounded=0;orthogonalLoop=1;jettySize=auto;html=1;exitX=1;exitY=1;exitDx=0;exitDy=0;entryX=0;entryY=0.5;entryDx=0;entryDy=0;" edge="1" parent="1" source="3MZtsbulTiadslG45F7I-37" target="3MZtsbulTiadslG45F7I-42">
          <mxGeometry relative="1" as="geometry" />
        </mxCell>
        <mxCell id="3MZtsbulTiadslG45F7I-50" style="edgeStyle=orthogonalEdgeStyle;rounded=0;orthogonalLoop=1;jettySize=auto;html=1;exitX=1;exitY=0.5;exitDx=0;exitDy=0;entryX=0;entryY=0.5;entryDx=0;entryDy=0;" edge="1" parent="1" source="3MZtsbulTiadslG45F7I-37" target="3MZtsbulTiadslG45F7I-43">
          <mxGeometry relative="1" as="geometry" />
        </mxCell>
        <mxCell id="3MZtsbulTiadslG45F7I-37" value="Product" style="whiteSpace=wrap;html=1;align=center;" vertex="1" parent="1">
          <mxGeometry x="270" y="690" width="100" height="40" as="geometry" />
        </mxCell>
        <mxCell id="3MZtsbulTiadslG45F7I-39" value="Name" style="ellipse;whiteSpace=wrap;html=1;align=center;" vertex="1" parent="1">
          <mxGeometry x="130" y="780" width="100" height="40" as="geometry" />
        </mxCell>
        <mxCell id="3MZtsbulTiadslG45F7I-40" value="product_id" style="ellipse;whiteSpace=wrap;html=1;align=center;fontStyle=4;" vertex="1" parent="1">
          <mxGeometry x="130" y="700" width="100" height="40" as="geometry" />
        </mxCell>
        <mxCell id="3MZtsbulTiadslG45F7I-41" value="Description" style="ellipse;whiteSpace=wrap;html=1;align=center;" vertex="1" parent="1">
          <mxGeometry x="270" y="810" width="100" height="40" as="geometry" />
        </mxCell>
        <mxCell id="3MZtsbulTiadslG45F7I-42" value="Rating" style="ellipse;whiteSpace=wrap;html=1;align=center;" vertex="1" parent="1">
          <mxGeometry x="410" y="780" width="100" height="40" as="geometry" />
        </mxCell>
        <mxCell id="3MZtsbulTiadslG45F7I-43" value="Image" style="ellipse;whiteSpace=wrap;html=1;align=center;" vertex="1" parent="1">
          <mxGeometry x="410" y="690" width="100" height="40" as="geometry" />
        </mxCell>
        <mxCell id="3MZtsbulTiadslG45F7I-44" value="Price" style="ellipse;whiteSpace=wrap;html=1;align=center;" vertex="1" parent="1">
          <mxGeometry x="130" y="630" width="100" height="40" as="geometry" />
        </mxCell>
        <mxCell id="3MZtsbulTiadslG45F7I-56" style="rounded=0;orthogonalLoop=1;jettySize=auto;html=1;exitX=0;exitY=0;exitDx=0;exitDy=0;entryX=0.5;entryY=1;entryDx=0;entryDy=0;" edge="1" parent="1" source="3MZtsbulTiadslG45F7I-51" target="3MZtsbulTiadslG45F7I-52">
          <mxGeometry relative="1" as="geometry" />
        </mxCell>
        <mxCell id="3MZtsbulTiadslG45F7I-57" style="rounded=0;orthogonalLoop=1;jettySize=auto;html=1;exitX=1;exitY=0;exitDx=0;exitDy=0;entryX=0.5;entryY=1;entryDx=0;entryDy=0;" edge="1" parent="1" source="3MZtsbulTiadslG45F7I-51" target="3MZtsbulTiadslG45F7I-55">
          <mxGeometry relative="1" as="geometry" />
        </mxCell>
        <mxCell id="3MZtsbulTiadslG45F7I-59" style="rounded=0;orthogonalLoop=1;jettySize=auto;html=1;exitX=0;exitY=0.5;exitDx=0;exitDy=0;entryX=1;entryY=0.5;entryDx=0;entryDy=0;" edge="1" parent="1" source="3MZtsbulTiadslG45F7I-51" target="3MZtsbulTiadslG45F7I-58">
          <mxGeometry relative="1" as="geometry">
            <mxPoint x="611" y="368" as="targetPoint" />
          </mxGeometry>
        </mxCell>
        <mxCell id="3MZtsbulTiadslG45F7I-70" style="rounded=0;orthogonalLoop=1;jettySize=auto;html=1;exitX=1;exitY=0.5;exitDx=0;exitDy=0;" edge="1" parent="1" source="3MZtsbulTiadslG45F7I-51" target="3MZtsbulTiadslG45F7I-69">
          <mxGeometry relative="1" as="geometry" />
        </mxCell>
        <mxCell id="3MZtsbulTiadslG45F7I-51" value="Trainer" style="whiteSpace=wrap;html=1;align=center;" vertex="1" parent="1">
          <mxGeometry x="760" y="330" width="100" height="40" as="geometry" />
        </mxCell>
        <mxCell id="3MZtsbulTiadslG45F7I-52" value="trainer_id" style="ellipse;whiteSpace=wrap;html=1;align=center;fontStyle=4;" vertex="1" parent="1">
          <mxGeometry x="700" y="240" width="100" height="40" as="geometry" />
        </mxCell>
        <mxCell id="3MZtsbulTiadslG45F7I-55" value="Name" style="ellipse;whiteSpace=wrap;html=1;align=center;" vertex="1" parent="1">
          <mxGeometry x="830" y="240" width="100" height="40" as="geometry" />
        </mxCell>
        <mxCell id="3MZtsbulTiadslG45F7I-60" style="rounded=0;orthogonalLoop=1;jettySize=auto;html=1;exitX=0;exitY=0.5;exitDx=0;exitDy=0;entryX=1;entryY=1;entryDx=0;entryDy=0;" edge="1" parent="1" source="3MZtsbulTiadslG45F7I-58" target="3MZtsbulTiadslG45F7I-14">
          <mxGeometry relative="1" as="geometry" />
        </mxCell>
        <mxCell id="3MZtsbulTiadslG45F7I-58" value="Train" style="shape=rhombus;perimeter=rhombusPerimeter;whiteSpace=wrap;html=1;align=center;" vertex="1" parent="1">
          <mxGeometry x="480" y="300" width="160" height="100" as="geometry" />
        </mxCell>
        <mxCell id="3MZtsbulTiadslG45F7I-63" style="rounded=0;orthogonalLoop=1;jettySize=auto;html=1;exitX=0;exitY=0;exitDx=0;exitDy=0;entryX=0.5;entryY=1;entryDx=0;entryDy=0;" edge="1" parent="1" source="3MZtsbulTiadslG45F7I-61" target="3MZtsbulTiadslG45F7I-62">
          <mxGeometry relative="1" as="geometry" />
        </mxCell>
        <mxCell id="3MZtsbulTiadslG45F7I-65" style="rounded=0;orthogonalLoop=1;jettySize=auto;html=1;exitX=1;exitY=0;exitDx=0;exitDy=0;entryX=0.5;entryY=1;entryDx=0;entryDy=0;" edge="1" parent="1" source="3MZtsbulTiadslG45F7I-61" target="3MZtsbulTiadslG45F7I-64">
          <mxGeometry relative="1" as="geometry" />
        </mxCell>
        <mxCell id="3MZtsbulTiadslG45F7I-73" style="rounded=0;orthogonalLoop=1;jettySize=auto;html=1;exitX=0.5;exitY=0;exitDx=0;exitDy=0;entryX=0.5;entryY=1;entryDx=0;entryDy=0;" edge="1" parent="1" source="3MZtsbulTiadslG45F7I-61" target="3MZtsbulTiadslG45F7I-72">
          <mxGeometry relative="1" as="geometry" />
        </mxCell>
        <mxCell id="3MZtsbulTiadslG45F7I-61" value="Plan" style="whiteSpace=wrap;html=1;align=center;" vertex="1" parent="1">
          <mxGeometry x="780" y="550" width="100" height="40" as="geometry" />
        </mxCell>
        <mxCell id="3MZtsbulTiadslG45F7I-62" value="Plan_id" style="ellipse;whiteSpace=wrap;html=1;align=center;fontStyle=4;" vertex="1" parent="1">
          <mxGeometry x="710" y="465" width="100" height="40" as="geometry" />
        </mxCell>
        <mxCell id="3MZtsbulTiadslG45F7I-64" value="Plan price" style="ellipse;whiteSpace=wrap;html=1;align=center;" vertex="1" parent="1">
          <mxGeometry x="860" y="465" width="100" height="40" as="geometry" />
        </mxCell>
        <mxCell id="3MZtsbulTiadslG45F7I-68" style="rounded=0;orthogonalLoop=1;jettySize=auto;html=1;exitX=1;exitY=0.5;exitDx=0;exitDy=0;entryX=0;entryY=0.5;entryDx=0;entryDy=0;" edge="1" parent="1" source="3MZtsbulTiadslG45F7I-66" target="3MZtsbulTiadslG45F7I-61">
          <mxGeometry relative="1" as="geometry" />
        </mxCell>
        <mxCell id="3MZtsbulTiadslG45F7I-75" style="rounded=0;orthogonalLoop=1;jettySize=auto;html=1;exitX=0.5;exitY=1;exitDx=0;exitDy=0;" edge="1" parent="1" source="3MZtsbulTiadslG45F7I-66" target="3MZtsbulTiadslG45F7I-74">
          <mxGeometry relative="1" as="geometry" />
        </mxCell>
        <mxCell id="3MZtsbulTiadslG45F7I-66" value="Enroled_in" style="shape=rhombus;perimeter=rhombusPerimeter;whiteSpace=wrap;html=1;align=center;" vertex="1" parent="1">
          <mxGeometry x="480" y="455" width="160" height="100" as="geometry" />
        </mxCell>
        <mxCell id="3MZtsbulTiadslG45F7I-71" style="rounded=0;orthogonalLoop=1;jettySize=auto;html=1;exitX=0;exitY=1;exitDx=0;exitDy=0;entryX=1;entryY=0.5;entryDx=0;entryDy=0;" edge="1" parent="1" source="3MZtsbulTiadslG45F7I-69" target="3MZtsbulTiadslG45F7I-61">
          <mxGeometry relative="1" as="geometry" />
        </mxCell>
        <mxCell id="3MZtsbulTiadslG45F7I-69" value="Avilable_in" style="shape=rhombus;perimeter=rhombusPerimeter;whiteSpace=wrap;html=1;align=center;" vertex="1" parent="1">
          <mxGeometry x="1010" y="410" width="160" height="100" as="geometry" />
        </mxCell>
        <mxCell id="3MZtsbulTiadslG45F7I-72" value="Plan name" style="ellipse;whiteSpace=wrap;html=1;align=center;" vertex="1" parent="1">
          <mxGeometry x="780" y="415" width="100" height="40" as="geometry" />
        </mxCell>
        <mxCell id="3MZtsbulTiadslG45F7I-74" value="Enrollment date" style="ellipse;whiteSpace=wrap;html=1;align=center;" vertex="1" parent="1">
          <mxGeometry x="510" y="610" width="100" height="40" as="geometry" />
        </mxCell>
        <mxCell id="3MZtsbulTiadslG45F7I-76" value="1" style="text;html=1;align=center;verticalAlign=middle;resizable=0;points=[];autosize=1;strokeColor=none;fillColor=none;" vertex="1" parent="1">
          <mxGeometry x="323" y="237" width="30" height="30" as="geometry" />
        </mxCell>
        <mxCell id="3MZtsbulTiadslG45F7I-77" value="1" style="text;html=1;align=center;verticalAlign=middle;resizable=0;points=[];autosize=1;strokeColor=none;fillColor=none;" vertex="1" parent="1">
          <mxGeometry x="445" y="475" width="30" height="30" as="geometry" />
        </mxCell>
        <mxCell id="3MZtsbulTiadslG45F7I-78" value="m" style="text;html=1;align=center;verticalAlign=middle;resizable=0;points=[];autosize=1;strokeColor=none;fillColor=none;" vertex="1" parent="1">
          <mxGeometry x="630" y="500" width="30" height="30" as="geometry" />
        </mxCell>
        <mxCell id="3MZtsbulTiadslG45F7I-79" value="1" style="text;html=1;align=center;verticalAlign=middle;resizable=0;points=[];autosize=1;strokeColor=none;fillColor=none;" vertex="1" parent="1">
          <mxGeometry x="745" y="555" width="30" height="30" as="geometry" />
        </mxCell>
        <mxCell id="3MZtsbulTiadslG45F7I-80" value="m" style="text;html=1;align=center;verticalAlign=middle;resizable=0;points=[];autosize=1;strokeColor=none;fillColor=none;" vertex="1" parent="1">
          <mxGeometry x="865" y="330" width="30" height="30" as="geometry" />
        </mxCell>
        <mxCell id="3MZtsbulTiadslG45F7I-81" value="m" style="text;html=1;align=center;verticalAlign=middle;resizable=0;points=[];autosize=1;strokeColor=none;fillColor=none;" vertex="1" parent="1">
          <mxGeometry x="1020" y="400" width="30" height="30" as="geometry" />
        </mxCell>
        <mxCell id="3MZtsbulTiadslG45F7I-82" value="m" style="text;html=1;align=center;verticalAlign=middle;resizable=0;points=[];autosize=1;strokeColor=none;fillColor=none;" vertex="1" parent="1">
          <mxGeometry x="1030" y="490" width="30" height="30" as="geometry" />
        </mxCell>
        <mxCell id="3MZtsbulTiadslG45F7I-83" value="m" style="text;html=1;align=center;verticalAlign=middle;resizable=0;points=[];autosize=1;strokeColor=none;fillColor=none;" vertex="1" parent="1">
          <mxGeometry x="890" y="560" width="30" height="30" as="geometry" />
        </mxCell>
        <mxCell id="3MZtsbulTiadslG45F7I-84" value="m" style="text;html=1;align=center;verticalAlign=middle;resizable=0;points=[];autosize=1;strokeColor=none;fillColor=none;" vertex="1" parent="1">
          <mxGeometry x="730" y="320" width="30" height="30" as="geometry" />
        </mxCell>
        <mxCell id="3MZtsbulTiadslG45F7I-85" value="m" style="text;html=1;align=center;verticalAlign=middle;resizable=0;points=[];autosize=1;strokeColor=none;fillColor=none;" vertex="1" parent="1">
          <mxGeometry x="650" y="320" width="30" height="30" as="geometry" />
        </mxCell>
        <mxCell id="3MZtsbulTiadslG45F7I-86" value="1" style="text;html=1;align=center;verticalAlign=middle;resizable=0;points=[];autosize=1;strokeColor=none;fillColor=none;" vertex="1" parent="1">
          <mxGeometry x="470" y="320" width="30" height="30" as="geometry" />
        </mxCell>
        <mxCell id="3MZtsbulTiadslG45F7I-87" value="m" style="text;html=1;align=center;verticalAlign=middle;resizable=0;points=[];autosize=1;strokeColor=none;fillColor=none;" vertex="1" parent="1">
          <mxGeometry x="370" y="230" width="30" height="30" as="geometry" />
        </mxCell>
        <mxCell id="3MZtsbulTiadslG45F7I-88" value="m" style="text;html=1;align=center;verticalAlign=middle;resizable=0;points=[];autosize=1;strokeColor=none;fillColor=none;" vertex="1" parent="1">
          <mxGeometry x="293" y="240" width="30" height="30" as="geometry" />
        </mxCell>
        <mxCell id="3MZtsbulTiadslG45F7I-89" value="m" style="text;html=1;align=center;verticalAlign=middle;resizable=0;points=[];autosize=1;strokeColor=none;fillColor=none;" vertex="1" parent="1">
          <mxGeometry x="293" y="340" width="30" height="30" as="geometry" />
        </mxCell>
        <mxCell id="3MZtsbulTiadslG45F7I-90" value="m" style="text;html=1;align=center;verticalAlign=middle;resizable=0;points=[];autosize=1;strokeColor=none;fillColor=none;" vertex="1" parent="1">
          <mxGeometry x="293" y="480" width="30" height="30" as="geometry" />
        </mxCell>
        <mxCell id="3MZtsbulTiadslG45F7I-91" value="m" style="text;html=1;align=center;verticalAlign=middle;resizable=0;points=[];autosize=1;strokeColor=none;fillColor=none;" vertex="1" parent="1">
          <mxGeometry x="293" y="650" width="30" height="30" as="geometry" />
        </mxCell>
      </root>
    </mxGraphModel>
  </diagram>
</mxfile>
